<svg width="30" height="40" viewBox="0 0 30 40" fill="none" xmlns="http://www.w3.org/2000/svg">
<path d="M24.8856 3.24683H22.9382C22.2361 3.24683 21.6671 3.81593 21.6671 4.51795V11.5966C21.6671 12.2987 22.2361 12.8678 22.9382 12.8678H24.8856C25.5877 12.8678 26.1567 12.2987 26.1567 11.5966V4.51795C26.1567 3.81593 25.5877 3.24683 24.8856 3.24683Z" fill="#0070F0"/>
<path d="M17.6046 39.358V32.652H25.8595L18.6995 39.8121C18.6098 39.902 18.4955 39.963 18.371 39.9877C18.2465 40.0124 18.1175 39.9998 18.0002 39.9511C17.883 39.9025 17.7828 39.8201 17.7124 39.7145C17.6419 39.6091 17.6044 39.4849 17.6046 39.358Z" fill="#0070F0"/>
<path d="M26.3018 32.2354H17.6046V33.0392H25.4562L26.3018 32.2354Z" fill="#005EC9"/>
<path d="M28.0894 12.3801L16.2096 0.499161C15.8883 0.179469 15.4535 0 15.0003 0C14.547 0 14.1122 0.179469 13.791 0.499161L1.91136 12.3801C1.18643 13.1863 0.759286 14.2164 0.700928 15.2991V17.3918C7.19118 22.2206 15.0682 24.8224 23.1576 24.8094C25.2149 24.8098 27.2689 24.6425 29.2991 24.3094V15.2991C29.2401 14.2167 28.8134 13.1869 28.0894 12.3801Z" fill="#0070F0"/>
<path d="M23.1576 26.7336C15.0682 26.7464 7.19122 24.1446 0.700928 19.316V30.6207C0.702396 31.0739 0.883055 31.508 1.20347 31.8283C1.52388 32.1488 1.95803 32.3294 2.41116 32.3309H27.589C28.0421 32.3294 28.4762 32.1487 28.7967 31.8283C29.117 31.5078 29.2976 31.0737 29.2991 30.6207V26.2336C27.2689 26.5668 25.2149 26.734 23.1576 26.7336Z" fill="#0070F0"/>
</svg>
