<svg width="262" height="48" viewBox="0 0 262 48" fill="none" xmlns="http://www.w3.org/2000/svg">
<path d="M24.8856 7.24683H22.9382C22.2361 7.24683 21.6671 7.81593 21.6671 8.51795V15.5966C21.6671 16.2987 22.2361 16.8678 22.9382 16.8678H24.8856C25.5877 16.8678 26.1567 16.2987 26.1567 15.5966V8.51795C26.1567 7.81593 25.5877 7.24683 24.8856 7.24683Z" fill="#0070F0"/>
<path d="M17.6046 43.358V36.652H25.8595L18.6995 43.8121C18.6098 43.902 18.4955 43.963 18.371 43.9877C18.2465 44.0124 18.1175 43.9998 18.0002 43.9511C17.883 43.9025 17.7828 43.8201 17.7124 43.7145C17.6419 43.6091 17.6044 43.4849 17.6046 43.358Z" fill="#0070F0"/>
<path d="M26.3018 36.2354H17.6046V37.0392H25.4562L26.3018 36.2354Z" fill="#005EC9"/>
<path d="M28.0894 16.3801L16.2096 4.49916C15.8883 4.17947 15.4535 4 15.0003 4C14.547 4 14.1122 4.17947 13.791 4.49916L1.91136 16.3801C1.18643 17.1863 0.759286 18.2164 0.700928 19.2991V21.3918C7.19118 26.2206 15.0682 28.8224 23.1576 28.8094C25.2149 28.8098 27.2689 28.6425 29.2991 28.3094V19.2991C29.2401 18.2167 28.8134 17.1869 28.0894 16.3801Z" fill="#0070F0"/>
<path d="M23.1576 30.7336C15.0682 30.7464 7.19122 28.1446 0.700928 23.316V34.6207C0.702396 35.0739 0.883055 35.508 1.20347 35.8283C1.52388 36.1488 1.95803 36.3294 2.41116 36.3309H27.589C28.0421 36.3294 28.4762 36.1487 28.7967 35.8283C29.117 35.5078 29.2976 35.0737 29.2991 34.6207V30.2336C27.2689 30.5668 25.2149 30.734 23.1576 30.7336Z" fill="#0070F0"/>
<path d="M35.7229 37.5V35.2852L38.5882 34.793V14.6309L35.7229 14.1387V11.9062H44.9163V14.1387L42.051 14.6309V23.4727H54.2854V14.6309L51.4202 14.1387V11.9062H54.2854H57.7483H60.6135V14.1387L57.7483 14.6309V34.793L60.6135 35.2852V37.5H51.4202V35.2852L54.2854 34.793V26.1973H42.051V34.793L44.9163 35.2852V37.5H35.7229ZM71.9339 37.8691C70.176 37.8691 68.6585 37.459 67.3811 36.6387C66.1155 35.8066 65.137 34.6641 64.4456 33.2109C63.7542 31.7461 63.4085 30.0762 63.4085 28.2012V27.8145C63.4085 25.9395 63.7542 24.2754 64.4456 22.8223C65.137 21.3574 66.1155 20.209 67.3811 19.377C68.6585 18.5449 70.1643 18.1289 71.8987 18.1289C73.6565 18.1289 75.1682 18.5449 76.4339 19.377C77.7112 20.209 78.6956 21.3516 79.387 22.8047C80.0784 24.2578 80.4241 25.9277 80.4241 27.8145V28.2012C80.4241 30.0879 80.0784 31.7637 79.387 33.2285C78.6956 34.6816 77.7171 35.8184 76.4514 36.6387C75.1858 37.459 73.6799 37.8691 71.9339 37.8691ZM71.9339 35.1621C73.0354 35.1621 73.9553 34.8633 74.6936 34.2656C75.4436 33.6562 76.0061 32.8301 76.3811 31.7871C76.7678 30.7324 76.9612 29.5371 76.9612 28.2012V27.8145C76.9612 26.4785 76.7678 25.2891 76.3811 24.2461C76.0061 23.1914 75.4436 22.3652 74.6936 21.7676C73.9436 21.1582 73.012 20.8535 71.8987 20.8535C70.7971 20.8535 69.8714 21.1582 69.1214 21.7676C68.3714 22.3652 67.8089 23.1914 67.4339 24.2461C67.0589 25.2891 66.8714 26.4785 66.8714 27.8145V28.2012C66.8714 29.5371 67.0589 30.7324 67.4339 31.7871C67.8089 32.8301 68.3714 33.6562 69.1214 34.2656C69.8831 34.8633 70.8206 35.1621 71.9339 35.1621ZM83.096 37.5V35.2852L85.9612 34.793V21.2051L83.096 20.7129V18.4805H89.0725L89.301 20.959C89.9104 20.0566 90.6956 19.3594 91.6565 18.8672C92.6174 18.375 93.7307 18.1289 94.9964 18.1289C96.262 18.1289 97.346 18.4219 98.2483 19.0078C99.1624 19.5938 99.8479 20.4727 100.305 21.6445C100.903 20.5664 101.694 19.7109 102.678 19.0781C103.662 18.4453 104.811 18.1289 106.123 18.1289C108.069 18.1289 109.604 18.7969 110.729 20.1328C111.854 21.457 112.416 23.4551 112.416 26.127V34.793L115.282 35.2852V37.5H106.071V35.2852L108.936 34.793V26.0918C108.936 24.2168 108.614 22.8926 107.969 22.1191C107.324 21.334 106.369 20.9414 105.104 20.9414C103.897 20.9414 102.924 21.3691 102.186 22.2246C101.459 23.0684 101.037 24.1348 100.92 25.4238V34.793L103.785 35.2852V37.5H94.5921V35.2852L97.4573 34.793V26.0918C97.4573 24.3105 97.1233 23.0098 96.4553 22.1895C95.7991 21.3574 94.844 20.9414 93.5901 20.9414C92.5354 20.9414 91.6682 21.1582 90.9885 21.5918C90.3089 22.0254 89.7874 22.6348 89.4241 23.4199V34.793L92.2893 35.2852V37.5H83.096ZM126.25 37.8691C124.492 37.8691 122.963 37.4707 121.662 36.6738C120.362 35.8652 119.354 34.7461 118.639 33.3164C117.936 31.8867 117.584 30.2344 117.584 28.3594V27.5859C117.584 25.7812 117.953 24.1699 118.692 22.752C119.442 21.3223 120.432 20.1973 121.662 19.377C122.905 18.5449 124.258 18.1289 125.723 18.1289C127.434 18.1289 128.864 18.4805 130.012 19.1836C131.172 19.8867 132.045 20.877 132.631 22.1543C133.217 23.4199 133.51 24.9141 133.51 26.6367V28.7988H121.17L121.117 28.8867C121.141 30.1055 121.352 31.1895 121.75 32.1387C122.16 33.0762 122.746 33.8145 123.508 34.3535C124.27 34.8926 125.184 35.1621 126.25 35.1621C127.422 35.1621 128.448 34.998 129.326 34.6699C130.217 34.3301 130.985 33.8672 131.629 33.2812L132.983 35.5312C132.303 36.1875 131.401 36.7441 130.276 37.2012C129.162 37.6465 127.821 37.8691 126.25 37.8691ZM121.276 26.0918H130.047V25.6348C130.047 24.7207 129.883 23.9062 129.555 23.1914C129.239 22.4648 128.758 21.8965 128.114 21.4863C127.481 21.0645 126.684 20.8535 125.723 20.8535C124.949 20.8535 124.246 21.082 123.614 21.5391C122.981 21.9844 122.459 22.5938 122.049 23.3672C121.639 24.1406 121.369 25.0195 121.24 26.0039L121.276 26.0918ZM154.533 37.8691C152.975 37.8691 151.475 37.6406 150.033 37.1836C148.592 36.7266 147.215 36.0234 145.903 35.0742V29.6074H148.592L149.172 33.6328C149.934 34.1016 150.76 34.4648 151.651 34.7227C152.541 34.9805 153.502 35.1094 154.533 35.1094C155.705 35.1094 156.696 34.9336 157.504 34.582C158.324 34.2188 158.951 33.7207 159.385 33.0879C159.819 32.4551 160.035 31.7168 160.035 30.873C160.035 30.0879 159.848 29.3965 159.473 28.7988C159.098 28.2012 158.477 27.6797 157.61 27.2344C156.754 26.7773 155.582 26.3789 154.094 26.0391C152.336 25.6289 150.848 25.084 149.629 24.4043C148.422 23.7129 147.502 22.8809 146.869 21.9082C146.248 20.9238 145.938 19.7988 145.938 18.5332C145.938 17.1973 146.289 16.002 146.992 14.9473C147.707 13.8926 148.698 13.0605 149.963 12.4512C151.229 11.8418 152.705 11.5371 154.393 11.5371C156.186 11.5371 157.768 11.8125 159.139 12.3633C160.522 12.9023 161.658 13.5586 162.549 14.332V19.4473H159.86L159.28 15.791C158.752 15.3691 158.096 15.0176 157.311 14.7363C156.526 14.4551 155.553 14.3145 154.393 14.3145C153.408 14.3145 152.541 14.4902 151.791 14.8418C151.041 15.1816 150.455 15.6621 150.033 16.2832C149.612 16.9043 149.401 17.6367 149.401 18.4805C149.401 19.2188 149.588 19.8633 149.963 20.4141C150.35 20.9648 150.971 21.4512 151.826 21.873C152.694 22.2832 153.848 22.6699 155.289 23.0332C157.985 23.7012 160.024 24.6914 161.407 26.0039C162.801 27.3047 163.498 28.916 163.498 30.8379C163.498 32.209 163.129 33.4277 162.391 34.4941C161.653 35.5488 160.61 36.375 159.262 36.9727C157.926 37.5703 156.35 37.8691 154.533 37.8691ZM175.047 37.8691C173.289 37.8691 171.76 37.4707 170.459 36.6738C169.158 35.8652 168.151 34.7461 167.436 33.3164C166.733 31.8867 166.381 30.2344 166.381 28.3594V27.5859C166.381 25.7812 166.75 24.1699 167.489 22.752C168.239 21.3223 169.229 20.1973 170.459 19.377C171.701 18.5449 173.055 18.1289 174.52 18.1289C176.231 18.1289 177.66 18.4805 178.809 19.1836C179.969 19.8867 180.842 20.877 181.428 22.1543C182.014 23.4199 182.307 24.9141 182.307 26.6367V28.7988H169.967L169.914 28.8867C169.938 30.1055 170.149 31.1895 170.547 32.1387C170.957 33.0762 171.543 33.8145 172.305 34.3535C173.067 34.8926 173.981 35.1621 175.047 35.1621C176.219 35.1621 177.244 34.998 178.123 34.6699C179.014 34.3301 179.782 33.8672 180.426 33.2812L181.78 35.5312C181.1 36.1875 180.198 36.7441 179.073 37.2012C177.959 37.6465 176.617 37.8691 175.047 37.8691ZM170.073 26.0918H178.844V25.6348C178.844 24.7207 178.68 23.9062 178.352 23.1914C178.035 22.4648 177.555 21.8965 176.91 21.4863C176.278 21.0645 175.481 20.8535 174.52 20.8535C173.746 20.8535 173.043 21.082 172.41 21.5391C171.778 21.9844 171.256 22.5938 170.846 23.3672C170.436 24.1406 170.166 25.0195 170.037 26.0039L170.073 26.0918ZM191.448 37.8691C189.467 37.8691 187.961 37.3887 186.93 36.4277C185.899 35.4551 185.383 34.0898 185.383 32.332C185.383 31.125 185.711 30.0762 186.367 29.1855C187.035 28.2832 187.996 27.5859 189.25 27.0938C190.504 26.5898 192.004 26.3379 193.75 26.3379H197.143V24.4746C197.143 23.3262 196.791 22.4355 196.088 21.8027C195.397 21.1699 194.418 20.8535 193.153 20.8535C192.356 20.8535 191.664 20.9531 191.078 21.1523C190.492 21.3398 189.959 21.6035 189.479 21.9434L189.11 24.5977H186.438V20.2383C187.293 19.5469 188.289 19.0254 189.426 18.6738C190.563 18.3105 191.823 18.1289 193.205 18.1289C195.514 18.1289 197.324 18.6797 198.637 19.7812C199.949 20.8828 200.606 22.459 200.606 24.5098V33.668C200.606 33.9141 200.606 34.1543 200.606 34.3887C200.617 34.623 200.635 34.8574 200.658 35.0918L202.504 35.2852V37.5H197.53C197.424 36.9844 197.342 36.5215 197.283 36.1113C197.225 35.7012 197.184 35.291 197.16 34.8809C196.492 35.7363 195.655 36.4512 194.647 37.0254C193.651 37.5879 192.584 37.8691 191.448 37.8691ZM191.957 34.9688C193.106 34.9688 194.155 34.6934 195.104 34.1426C196.053 33.5918 196.733 32.9297 197.143 32.1562V28.7109H193.627C192.033 28.7109 190.838 29.0918 190.041 29.8535C189.244 30.6152 188.846 31.4648 188.846 32.4023C188.846 33.2344 189.104 33.873 189.619 34.3184C190.135 34.752 190.914 34.9688 191.957 34.9688ZM205.158 37.5V35.2852L208.024 34.793V21.2051L205.158 20.7129V18.4805H211.117L211.416 20.9062L211.451 21.2402C211.99 20.2676 212.653 19.5059 213.438 18.9551C214.235 18.4043 215.143 18.1289 216.162 18.1289C216.526 18.1289 216.895 18.1641 217.27 18.2344C217.657 18.293 217.932 18.3516 218.096 18.4102L217.639 21.627L215.231 21.4863C214.317 21.4277 213.549 21.6387 212.928 22.1191C212.307 22.5879 211.826 23.2207 211.487 24.0176V34.793L214.352 35.2852V37.5H205.158ZM228.449 37.8691C226.727 37.8691 225.227 37.4707 223.949 36.6738C222.672 35.8652 221.682 34.7461 220.979 33.3164C220.276 31.8867 219.924 30.2344 219.924 28.3594V27.6211C219.924 25.8164 220.264 24.1992 220.944 22.7695C221.623 21.3398 222.602 20.209 223.879 19.377C225.157 18.5449 226.68 18.1289 228.449 18.1289C229.985 18.1289 231.326 18.3809 232.475 18.8848C233.635 19.3887 234.608 20.0801 235.393 20.959L235.481 25.5293H232.774L232.176 22.207C231.778 21.7969 231.28 21.4688 230.682 21.2227C230.084 20.9766 229.381 20.8535 228.573 20.8535C227.541 20.8535 226.633 21.1582 225.848 21.7676C225.074 22.377 224.471 23.1914 224.037 24.2109C223.604 25.2305 223.387 26.3672 223.387 27.6211V28.3594C223.387 29.7422 223.586 30.9434 223.985 31.9629C224.395 32.9824 224.975 33.7734 225.725 34.3359C226.487 34.8867 227.389 35.1621 228.432 35.1621C229.604 35.1621 230.576 34.8398 231.35 34.1953C232.123 33.5508 232.598 32.666 232.774 31.541H235.885L235.92 31.6465C235.862 32.7363 235.539 33.7559 234.953 34.7051C234.367 35.6543 233.53 36.4219 232.44 37.0078C231.362 37.582 230.032 37.8691 228.449 37.8691ZM238.188 37.5V35.2852L241.053 34.793V12.8027L238.188 12.3105V10.0781H244.516V21.0117C245.172 20.0977 245.975 19.3887 246.924 18.8848C247.873 18.3809 248.928 18.1289 250.088 18.1289C252.127 18.1289 253.709 18.7383 254.834 19.957C255.959 21.1758 256.522 23.0508 256.522 25.582V34.793L259.387 35.2852V37.5H250.194V35.2852L253.059 34.793V25.5469C253.059 23.9766 252.719 22.8164 252.039 22.0664C251.371 21.3164 250.369 20.9414 249.033 20.9414C248.084 20.9414 247.217 21.1699 246.432 21.627C245.658 22.0723 245.02 22.6816 244.516 23.4551V34.793L247.381 35.2852V37.5H238.188Z" fill="black"/>
</svg>
