<svg width="30" height="31" viewBox="0 0 30 31" fill="none" xmlns="http://www.w3.org/2000/svg">
<path fill-rule="evenodd" clip-rule="evenodd" d="M20.4546 11.4091C20.4546 14.4215 18.0124 16.8637 15 16.8637C11.9876 16.8637 9.54547 14.4215 9.54547 11.4091C9.54547 8.39667 11.9876 5.95459 15 5.95459C18.0124 5.95459 20.4546 8.39667 20.4546 11.4091ZM17.7273 11.4091C17.7273 12.9154 16.5063 14.1364 15 14.1364C13.4937 14.1364 12.2727 12.9154 12.2727 11.4091C12.2727 9.9029 13.4937 8.68186 15 8.68186C16.5063 8.68186 17.7273 9.9029 17.7273 11.4091Z" fill="#0070F0"/>
<path fill-rule="evenodd" clip-rule="evenodd" d="M15 0.5C6.71573 0.5 0 7.21573 0 15.5C0 23.7842 6.71573 30.5 15 30.5C23.2842 30.5 30 23.7842 30 15.5C30 7.21573 23.2842 0.5 15 0.5ZM2.72727 15.5C2.72727 18.3503 3.69893 20.9736 5.32906 23.0569C7.57152 20.1212 11.1085 18.2273 15.088 18.2273C19.0156 18.2273 22.5125 20.0724 24.7589 22.9431C26.3359 20.8786 27.2727 18.2987 27.2727 15.5C27.2727 8.72196 21.7781 3.22727 15 3.22727C8.22196 3.22727 2.72727 8.72196 2.72727 15.5ZM15 27.7727C12.0679 27.7727 9.37589 26.7444 7.265 25.0288C8.99116 22.5653 11.8514 20.9545 15.088 20.9545C18.2842 20.9545 21.1136 22.5256 22.8461 24.9376C20.719 26.7079 17.9838 27.7727 15 27.7727Z" fill="#0070F0"/>
</svg>
